<svg width="56" height="64" viewBox="0 0 56 64" fill="none" xmlns="http://www.w3.org/2000/svg">
<g id="amazon 1">
<path id="Vector" d="M32.1498 20.3375C26.0623 20.5625 10.9623 22.275 10.9623 35.025C10.9623 48.7125 28.2498 49.275 33.8998 40.425C34.7123 41.7 38.3248 45.1125 39.5623 46.275L46.6623 39.275C46.6623 39.275 42.6248 36.1125 42.6248 32.675V14.2875C42.6248 11.125 39.5623 4 28.5873 4C17.5873 4 11.7498 10.875 11.7498 17.0375L20.9373 17.8875C22.9748 11.7 27.7123 11.7 27.7123 11.7C32.7998 11.6875 32.1498 15.425 32.1498 20.3375ZM32.1498 31.1875C32.1498 41.1875 21.6248 39.6875 21.6248 33.3375C21.6248 27.4375 27.9373 26.25 32.1498 26.1125V31.1875ZM49.1498 51.625C48.1873 52.875 40.3998 60 27.3373 60C14.2748 60 4.2748 51.0625 1.2123 47.375C0.362303 46.4125 1.3373 45.9625 1.8998 46.3375C11.0623 51.9 25.3748 61.0625 48.4623 50.125C49.3998 49.6625 50.1248 50.375 49.1498 51.625ZM54.1248 51.9C53.3123 53.875 52.1248 55.25 51.4748 55.775C50.7873 56.3375 50.2873 56.1125 50.6623 55.3C51.0373 54.4875 53.0748 49.4875 52.2498 48.425C51.4373 47.3875 47.6248 47.8875 46.2498 48.025C44.8998 48.15 44.6248 48.275 44.4998 47.9875C44.2123 47.275 47.2123 46.05 49.1873 45.8C51.1498 45.575 54.3123 45.7 54.9373 46.5125C55.3998 47.15 54.9373 49.9 54.1248 51.9Z" fill="#261F22"/>
</g>
</svg>
