<svg width="48" height="64" viewBox="0 0 48 64" fill="none" xmlns="http://www.w3.org/2000/svg">
<g id="apple 1">
<path id="Vector" d="M39.8375 33.5875C39.8125 29 41.8875 25.5375 46.0875 22.9875C43.7375 19.625 40.1875 17.775 35.5 17.4125C31.0625 17.0625 26.2125 20 24.4375 20C22.5625 20 18.2625 17.5375 14.8875 17.5375C7.9125 17.65 0.5 23.1 0.5 34.1875C0.5 37.4625 1.1 40.8458 2.3 44.3375C3.9 48.925 9.675 60.175 15.7 59.9875C18.85 59.9125 21.075 57.75 25.175 57.75C29.15 57.75 31.2125 59.9875 34.725 59.9875C40.8 59.9 46.025 49.675 47.55 45.075C39.4 41.2375 39.8375 33.825 39.8375 33.5875ZM32.7625 13.0625C36.175 9.0125 35.8625 5.325 35.7625 4C32.75 4.175 29.2625 6.05 27.275 8.3625C25.0875 10.8375 23.8 13.9 24.075 17.35C27.3375 17.6 30.3125 15.925 32.7625 13.0625Z" fill="#261F22"/>
</g>
</svg>
