<svg width="62" height="64" viewBox="0 0 62 64" fill="none" xmlns="http://www.w3.org/2000/svg">
<g id="github 1">
<path id="Vector" d="M20.7375 49.675C20.7375 49.925 20.45 50.125 20.0875 50.125C19.675 50.1625 19.3875 49.9625 19.3875 49.675C19.3875 49.425 19.675 49.225 20.0375 49.225C20.4125 49.1875 20.7375 49.3875 20.7375 49.675ZM16.85 49.1125C16.7625 49.3625 17.0125 49.65 17.3875 49.725C17.7125 49.85 18.0875 49.725 18.1625 49.475C18.2375 49.225 18 48.9375 17.625 48.825C17.3 48.7375 16.9375 48.8625 16.85 49.1125ZM22.375 48.9C22.0125 48.9875 21.7625 49.225 21.8 49.5125C21.8375 49.7625 22.1625 49.925 22.5375 49.8375C22.9 49.75 23.15 49.5125 23.1125 49.2625C23.075 49.025 22.7375 48.8625 22.375 48.9ZM30.6 1C13.2625 1 0 14.1625 0 31.5C0 45.3625 8.725 57.225 21.1875 61.4C22.7875 61.6875 23.35 60.7 23.35 59.8875C23.35 59.1125 23.3125 54.8375 23.3125 52.2125C23.3125 52.2125 14.5625 54.0875 12.725 48.4875C12.725 48.4875 11.3 44.85 9.25 43.9125C9.25 43.9125 6.3875 41.95 9.45 41.9875C9.45 41.9875 12.5625 42.2375 14.275 45.2125C17.0125 50.0375 21.6 48.65 23.3875 47.825C23.675 45.825 24.4875 44.4375 25.3875 43.6125C18.4 42.8375 11.35 41.825 11.35 29.8C11.35 26.3625 12.3 24.6375 14.3 22.4375C13.975 21.625 12.9125 18.275 14.625 13.95C17.2375 13.1375 23.25 17.325 23.25 17.325C25.75 16.625 28.4375 16.2625 31.1 16.2625C33.7625 16.2625 36.45 16.625 38.95 17.325C38.95 17.325 44.9625 13.125 47.575 13.95C49.2875 18.2875 48.225 21.625 47.9 22.4375C49.9 24.65 51.125 26.375 51.125 29.8C51.125 41.8625 43.7625 42.825 36.775 43.6125C37.925 44.6 38.9 46.475 38.9 49.4125C38.9 53.625 38.8625 58.8375 38.8625 59.8625C38.8625 60.675 39.4375 61.6625 41.025 61.375C53.525 57.225 62 45.3625 62 31.5C62 14.1625 47.9375 1 30.6 1ZM12.15 44.1125C11.9875 44.2375 12.025 44.525 12.2375 44.7625C12.4375 44.9625 12.725 45.05 12.8875 44.8875C13.05 44.7625 13.0125 44.475 12.8 44.2375C12.6 44.0375 12.3125 43.95 12.15 44.1125ZM10.8 43.1C10.7125 43.2625 10.8375 43.4625 11.0875 43.5875C11.2875 43.7125 11.5375 43.675 11.625 43.5C11.7125 43.3375 11.5875 43.1375 11.3375 43.0125C11.0875 42.9375 10.8875 42.975 10.8 43.1ZM14.85 47.55C14.65 47.7125 14.725 48.0875 15.0125 48.325C15.3 48.6125 15.6625 48.65 15.825 48.45C15.9875 48.2875 15.9125 47.9125 15.6625 47.675C15.3875 47.3875 15.0125 47.35 14.85 47.55ZM13.425 45.7125C13.225 45.8375 13.225 46.1625 13.425 46.45C13.625 46.7375 13.9625 46.8625 14.125 46.7375C14.325 46.575 14.325 46.25 14.125 45.9625C13.95 45.675 13.625 45.55 13.425 45.7125Z" fill="#261F22"/>
</g>
</svg>
