<svg width="64" height="64" viewBox="0 0 64 64" fill="none" xmlns="http://www.w3.org/2000/svg">
<path d="M33.5201 60.32C44.7978 60.32 53.9401 51.1776 53.9401 39.9C53.9401 28.6223 44.7978 19.48 33.5201 19.48C22.2424 19.48 13.1001 28.6223 13.1001 39.9C13.1001 51.1776 22.2424 60.32 33.5201 60.32Z" stroke="#FE572E" stroke-width="3" stroke-linecap="round"/>
<path d="M33.65 27.9099L37.29 35.2899C37.2989 35.3095 37.3129 35.3263 37.3305 35.3386C37.348 35.3509 37.3686 35.3583 37.39 35.3599L45.54 36.5499C45.5657 36.5524 45.59 36.5624 45.6099 36.5787C45.6299 36.595 45.6445 36.6169 45.652 36.6415C45.6595 36.6661 45.6595 36.6925 45.6521 36.7171C45.6446 36.7418 45.63 36.7636 45.61 36.7799L39.72 42.5199C39.7084 42.5378 39.7022 42.5586 39.7022 42.5799C39.7022 42.6013 39.7084 42.6221 39.72 42.6399L41.11 50.7599C41.1125 50.7847 41.1083 50.8096 41.0979 50.8322C41.0876 50.8548 41.0714 50.8742 41.051 50.8885C41.0306 50.9027 41.0068 50.9113 40.9821 50.9133C40.9573 50.9153 40.9324 50.9107 40.91 50.8999L33.63 47.0699C33.6097 47.0602 33.5875 47.0551 33.565 47.0551C33.5425 47.0551 33.5203 47.0602 33.5 47.0699L26.18 50.8999C26.1576 50.9107 26.1328 50.9153 26.108 50.9133C26.0832 50.9113 26.0594 50.9027 26.0391 50.8885C26.0187 50.8742 26.0025 50.8548 25.9921 50.8322C25.9817 50.8096 25.9776 50.7847 25.98 50.7599L27.37 42.6399C27.3789 42.6212 27.3835 42.6007 27.3835 42.5799C27.3835 42.5592 27.3789 42.5387 27.37 42.5199L21.48 36.7799C21.4601 36.7636 21.4455 36.7418 21.438 36.7171C21.4305 36.6925 21.4305 36.6661 21.438 36.6415C21.4455 36.6169 21.4602 36.595 21.4801 36.5787C21.5 36.5624 21.5244 36.5524 21.55 36.5499L29.7 35.3599C29.7214 35.3583 29.742 35.3509 29.7596 35.3386C29.7772 35.3263 29.7911 35.3095 29.8 35.2899L33.44 27.9099C33.4532 27.895 33.4693 27.8831 33.4874 27.8749C33.5055 27.8668 33.5252 27.8625 33.545 27.8625C33.5649 27.8625 33.5845 27.8668 33.6026 27.8749C33.6207 27.8831 33.6369 27.895 33.65 27.9099Z" stroke="#FE572E" stroke-width="3" stroke-linecap="round"/>
<path d="M21.4799 23.75L9.88989 3.67004H19.9699L29.0399 19.38L19.9699 3.67004" stroke="#FE572E" stroke-width="3"/>
<path d="M44.82 22.89L55.92 3.67004H45.79L36.77 19.38" stroke="#FE572E" stroke-width="3" stroke-linecap="round"/>
</svg>
