<svg width="64" height="64" viewBox="0 0 64 64" fill="none" xmlns="http://www.w3.org/2000/svg">
<rect width="64" height="64" fill="#F5F5F5"/>
<g id="About Me - Desktop" filter="url(#filter0_d_7_21)">
<g clip-path="url(#clip0_7_21)">
<rect x="-256" y="-1914" width="1800" height="5406" fill="white"/>
<g id="Container" filter="url(#filter1_d_7_21)">
<rect x="-256" y="-1900" width="1800" height="5406" fill="white" shape-rendering="crispEdges"/>
<rect x="-255.5" y="-1899.5" width="1799" height="5405" stroke="black" shape-rendering="crispEdges"/>
<g id="What you get">
<g id="Row">
<g id="Column">
<g id="forge-icon(2)">
<path id="Vector" d="M31.9999 51.63C43.2444 51.63 52.3599 42.5146 52.3599 31.27C52.3599 20.0255 43.2444 10.91 31.9999 10.91C20.7554 10.91 11.6399 20.0255 11.6399 31.27C11.6399 42.5146 20.7554 51.63 31.9999 51.63Z" stroke="#FE572E" stroke-width="3"/>
<path id="Vector_2" d="M31.3601 16.58V31.99L38.7601 37.66" stroke="#FE572E" stroke-width="3" stroke-linecap="round"/>
<path id="Vector_3" d="M13.6399 53.43L18.2499 46.3" stroke="#FE572E" stroke-width="3" stroke-linecap="round"/>
<path id="Vector_4" d="M45.8401 46.3L50.4501 53.43" stroke="#FE572E" stroke-width="3" stroke-linecap="round"/>
<path id="Vector_5" d="M9.14992 19.4C7.9771 18.1956 7.3208 16.581 7.3208 14.9C7.3208 13.2189 7.9771 11.6043 9.14992 10.4C9.71962 9.81147 10.4018 9.34352 11.156 9.02394C11.9101 8.70436 12.7208 8.53967 13.5399 8.53967C14.359 8.53967 15.1697 8.70436 15.9239 9.02394C16.678 9.34352 17.3602 9.81147 17.9299 10.4L9.14992 19.4Z" stroke="#FE572E" stroke-width="3"/>
<path id="Vector_6" d="M54.8701 19.4C56.0429 18.1956 56.6992 16.581 56.6992 14.9C56.6992 13.2189 56.0429 11.6043 54.8701 10.4C54.3004 9.81147 53.6182 9.34352 52.864 9.02394C52.1099 8.70436 51.2992 8.53967 50.4801 8.53967C49.661 8.53967 48.8503 8.70436 48.0961 9.02394C47.342 9.34352 46.6598 9.81147 46.0901 10.4L54.8701 19.4Z" stroke="#FE572E" stroke-width="3"/>
</g>
</g>
</g>
</g>
</g>
</g>
<rect x="-255.5" y="-1913.5" width="1799" height="5405" stroke="black"/>
</g>
<defs>
<filter id="filter0_d_7_21" x="-260" y="-1914" width="1808" height="5414" filterUnits="userSpaceOnUse" color-interpolation-filters="sRGB">
<feFlood flood-opacity="0" result="BackgroundImageFix"/>
<feColorMatrix in="SourceAlpha" type="matrix" values="0 0 0 0 0 0 0 0 0 0 0 0 0 0 0 0 0 0 127 0" result="hardAlpha"/>
<feOffset dy="4"/>
<feGaussianBlur stdDeviation="2"/>
<feComposite in2="hardAlpha" operator="out"/>
<feColorMatrix type="matrix" values="0 0 0 0 0 0 0 0 0 0 0 0 0 0 0 0 0 0 0.25 0"/>
<feBlend mode="normal" in2="BackgroundImageFix" result="effect1_dropShadow_7_21"/>
<feBlend mode="normal" in="SourceGraphic" in2="effect1_dropShadow_7_21" result="shape"/>
</filter>
<filter id="filter1_d_7_21" x="-260" y="-1900" width="1808" height="5414" filterUnits="userSpaceOnUse" color-interpolation-filters="sRGB">
<feFlood flood-opacity="0" result="BackgroundImageFix"/>
<feColorMatrix in="SourceAlpha" type="matrix" values="0 0 0 0 0 0 0 0 0 0 0 0 0 0 0 0 0 0 127 0" result="hardAlpha"/>
<feOffset dy="4"/>
<feGaussianBlur stdDeviation="2"/>
<feComposite in2="hardAlpha" operator="out"/>
<feColorMatrix type="matrix" values="0 0 0 0 0 0 0 0 0 0 0 0 0 0 0 0 0 0 0.25 0"/>
<feBlend mode="normal" in2="BackgroundImageFix" result="effect1_dropShadow_7_21"/>
<feBlend mode="normal" in="SourceGraphic" in2="effect1_dropShadow_7_21" result="shape"/>
</filter>
<clipPath id="clip0_7_21">
<rect x="-256" y="-1914" width="1800" height="5406" fill="white"/>
</clipPath>
</defs>
</svg>
