<svg width="65" height="64" viewBox="0 0 65 64" fill="none" xmlns="http://www.w3.org/2000/svg">
<path d="M5.28662 9.95996H16.0066L22.3766 37.85H50.3566L56.8366 16.35L17.3366 15.79" stroke="#FE572E" stroke-width="3"/>
<path d="M52.3964 44.3501H22.3364C21.9031 44.3597 21.4723 44.2813 21.07 44.1199C20.6678 43.9584 20.3024 43.7172 19.9959 43.4107C19.6894 43.1042 19.4481 42.7388 19.2866 42.3365C19.1252 41.9343 19.0469 41.5035 19.0564 41.0701C19.0564 37.8501 22.3764 37.8501 22.3764 37.8501" stroke="#FE572E" stroke-width="3"/>
<path d="M25.6164 55.1401C27.566 55.1401 29.1464 53.5596 29.1464 51.6101C29.1464 49.6605 27.566 48.0801 25.6164 48.0801C23.6669 48.0801 22.0864 49.6605 22.0864 51.6101C22.0864 53.5596 23.6669 55.1401 25.6164 55.1401Z" stroke="#FE572E" stroke-width="3"/>
<path d="M46.7065 55.1401C48.6561 55.1401 50.2365 53.5596 50.2365 51.6101C50.2365 49.6605 48.6561 48.0801 46.7065 48.0801C44.757 48.0801 43.1765 49.6605 43.1765 51.6101C43.1765 53.5596 44.757 55.1401 46.7065 55.1401Z" stroke="#FE572E" stroke-width="3"/>
</svg>
