<svg width="24" height="32" viewBox="0 0 24 32" fill="none" xmlns="http://www.w3.org/2000/svg">
<g id="Logo">
<path id="Vector" d="M12.0571 21.3298H23.9943L16.0216 14.2417L12.0571 21.3298Z" fill="#FF7FAC"/>
<path id="Vector_2" d="M11.9916 10.6704L7.9834 14.2308L11.9698 21.3298H12.0571L16.0216 14.2417L11.9916 10.6704Z" fill="#FF4C80"/>
<path id="Vector_3" d="M7.98363 14.2305L0 21.3295H11.97L7.98363 14.2305Z" fill="#FF745B"/>
<path id="Vector_4" d="M12.0139 21.406L12.0576 21.3296H11.9702L12.0139 21.406Z" fill="#FF9D51"/>
<path id="Vector_5" d="M11.9919 32.0001L15.9455 28.4834L8.08203 28.5162L11.9919 32.0001Z" fill="#FF745B"/>
<path id="Vector_6" d="M8.04932 28.4943L8.08208 28.5162L15.9456 28.4834L15.9783 28.4616L12.0138 21.4062L8.04932 28.4943Z" fill="#FFB955"/>
<path id="Vector_7" d="M12.0574 21.3296L12.0137 21.406L15.9782 28.4613L23.9946 21.3296H12.0574Z" fill="#FF9B92"/>
<path id="Vector_8" d="M11.97 21.3296H0L8.04916 28.4941L12.0137 21.406L11.97 21.3296Z" fill="#FF9D51"/>
<path id="Vector_9" d="M0 0V21.3297L7.98363 14.2307L0 0Z" fill="#FF9D51"/>
<path id="Vector_10" d="M11.9918 10.6703L0 0L7.98363 14.2307L11.9918 10.6703Z" fill="#FFB955"/>
<path id="Vector_11" d="M23.9944 0L11.9917 10.6703L16.0217 14.2417L23.9944 0Z" fill="#E3398B"/>
<path id="Vector_12" d="M23.9947 21.3297V0L16.022 14.2417L23.9947 21.3297Z" fill="#F766B7"/>
</g>
</svg>
